<svg width="19" height="19" viewBox="0 0 19 19" fill="none" xmlns="http://www.w3.org/2000/svg">
<path fill-rule="evenodd" clip-rule="evenodd" d="M10.4941 10.5765L10.5765 10.4941C12.4881 8.53838 12.4744 5.40334 10.5355 3.46447C8.58291 1.51184 5.41709 1.51184 3.46447 3.46447C1.51184 5.41709 1.51184 8.58291 3.46447 10.5355C5.40334 12.4744 8.53838 12.4881 10.4941 10.5765ZM11.1923 12.6069C8.45053 14.6623 4.54379 14.4433 2.05025 11.9497C-0.683417 9.21608 -0.683417 4.78392 2.05025 2.05025C4.78392 -0.683418 9.21608 -0.683417 11.9497 2.05025C14.4434 4.5439 14.6623 8.45085 12.6066 11.1927L18.3133 16.8994L16.8991 18.3136L11.1923 12.6069Z" fill="#37373A"/>
</svg>
