<svg width="21" height="17" viewBox="0 0 21 17" fill="none" xmlns="http://www.w3.org/2000/svg">
<path fill-rule="evenodd" clip-rule="evenodd" d="M10.4913 0C9.94482 0 9.50181 0.443007 9.50181 0.989485V8.01052C9.50181 8.55699 9.94482 9 10.4913 9C11.0378 9 11.4808 8.55699 11.4808 8.01052V0.989485C11.4808 0.443007 11.0378 0 10.4913 0ZM1.90217 6H7.52302V8.03154C7.52302 9.67098 8.85205 11 10.4915 11C12.1309 11 13.4599 9.67098 13.4599 8.03154V6H19.0806C19.7389 6 20.2176 6.62501 20.0461 7.26054L17.6173 16.2605C17.4996 16.6969 17.1038 17 16.6519 17H4.33091C3.87896 17 3.48319 16.6969 3.36544 16.2605L0.936705 7.26054C0.765201 6.62501 1.2439 6 1.90217 6Z" fill="#2DD05D"/>
</svg>
