<svg width="137" height="56" viewBox="0 0 137 56" fill="none" xmlns="http://www.w3.org/2000/svg">
<path d="M27.2458 16.7338L27.1687 16.7627C26.8181 16.9322 26.4676 17.1037 26.1305 17.3001C25.7626 17.514 25.4217 17.7605 25.0692 17.9916C24.9016 18.1342 24.7359 18.2786 24.5741 18.4289C24.2544 18.7236 23.9481 19.0356 23.6573 19.3573C23.4801 19.5499 22.985 19.9583 22.933 20.2145C22.933 20.1952 23.5899 19.3303 23.2605 19.8023C23.2066 19.8793 23.1507 19.9544 23.0948 20.0315C22.9677 20.2106 22.8444 20.3917 22.7231 20.5766C22.515 20.8925 22.3147 21.2161 22.124 21.5397C22.0431 21.6803 21.9661 21.8209 21.889 21.9615C22.9947 22.8604 24.1414 23.8119 25.3292 24.8161C29.1392 28.0174 39.1746 33.7478 48.7901 34.1196C49.8823 34.1793 50.8357 33.5032 50.9648 32.5401C51.0938 31.577 50.3966 30.7218 49.3738 30.4598C32.5158 25.8697 28.1857 17.4022 28.1857 17.4022C27.9784 17.159 27.8095 16.8856 27.6849 16.5913C27.5308 16.6337 27.3883 16.6818 27.2458 16.7338Z" fill="#159EEA"/>
<path d="M52.5482 38.259C52.7255 37.3306 52.0783 36.4137 51.0709 36.0959C34.6733 30.2423 30.6129 21.9076 30.6129 21.9076C29.1721 19.9815 30.6129 18.1593 32.0864 18.5946C33.2903 18.9529 36.7497 21.0755 37.395 21.4839C39.3211 22.7263 44.6663 24.1324 46.9719 19.9429C46.9719 19.9429 39.3597 17.7432 33.637 9.86707C27.7043 1.70582 20.5389 -6.53247 0 7.87732C0 7.87732 7.26942 10.2947 27.3692 29.1501C30.9981 32.5556 40.708 38.8234 50.2908 39.7152C51.3771 39.8385 52.3653 39.2144 52.5482 38.259Z" fill="#0EE236"/>
<path opacity="0.39" d="M32.0882 18.5927C33.2266 19.1243 36.7515 21.0736 37.3968 21.4819C39.323 22.7243 44.6681 24.1304 46.9738 19.941C46.9738 19.941 39.3615 17.7413 33.6388 9.86511C27.7061 1.70387 20.5407 -6.53442 0.00183105 7.87537C0.00183105 7.87537 4.56882 9.45869 14.2652 17.5833C21.866 12.2208 30.32 17.7682 32.0882 18.5927Z" fill="url(#paint0_linear)"/>
<path opacity="0.31" d="M19.9783 0.0494417C15.1339 -0.301124 8.79101 1.71752 0.00183105 7.88709C0.00183105 7.88709 7.27125 10.3044 27.371 29.1599C24.5145 24.0574 17.8017 13.6156 19.9783 0.0494417Z" fill="url(#paint1_linear)"/>
<path d="M60.5949 19.8638L60.6006 16.2077C60.9915 16.1568 61.2951 16.0545 61.5113 15.9006C61.7378 15.7466 61.944 15.4333 62.1298 14.9605C62.3157 14.4877 62.4607 13.8143 62.565 12.9403L63.1749 7.68066L70.4872 7.69215L70.474 16.0535L71.3996 16.0549L71.3936 19.8808L69.203 19.8773L69.206 17.9798L62.7885 17.9698L62.7855 19.8673L60.5949 19.8638ZM64.7399 13.0979C64.5938 14.4244 64.1758 15.4059 63.4857 16.0425L68.268 16.05L68.2781 9.61703L65.1465 9.61212L64.7399 13.0979Z" fill="#37373A"/>
<path d="M78.9597 17.0541C78.2386 17.8038 77.2816 18.1776 76.0886 18.1758C74.8956 18.1739 73.9397 17.797 73.221 17.0451C72.5125 16.2829 72.1592 15.3516 72.1609 14.2512C72.1626 13.1507 72.5189 12.2257 73.2297 11.476C73.9508 10.7264 74.9079 10.3525 76.1009 10.3544C77.2939 10.3563 78.2497 10.7331 78.9685 11.485C79.6872 12.2369 80.0457 13.1631 80.044 14.2636C80.0423 15.364 79.6808 16.2942 78.9597 17.0541ZM74.7039 15.8133C75.0426 16.2252 75.5051 16.4316 76.0913 16.4325C76.6775 16.4335 77.1407 16.2285 77.4807 15.8176C77.831 15.3965 78.0067 14.8774 78.0077 14.2604C78.0086 13.6536 77.8346 13.1442 77.4855 12.7323C77.1468 12.3101 76.6844 12.0985 76.0981 12.0976C75.5119 12.0967 75.0488 12.3068 74.7087 12.7279C74.3687 13.1388 74.1982 13.6476 74.1972 14.2544C74.1963 14.8715 74.3652 15.3911 74.7039 15.8133Z" fill="#37373A"/>
<path d="M84.9624 18.1897C83.8105 18.1879 82.8649 17.8213 82.1256 17.0899C81.3862 16.3586 81.0174 15.417 81.0193 14.2651C81.0211 13.1235 81.3928 12.1882 82.1344 11.4592C82.876 10.7301 83.8228 10.3665 84.9746 10.3683C86.2911 10.3704 87.2725 10.8193 87.9191 11.7151L86.6367 12.9164C86.2776 12.381 85.7535 12.1128 85.0645 12.1117C84.468 12.1108 83.9791 12.3105 83.598 12.711C83.2271 13.1013 83.0412 13.6203 83.0402 14.2683C83.0392 14.9162 83.2234 15.441 83.5931 15.8427C83.973 16.2444 84.4612 16.4457 85.0577 16.4466C85.7262 16.4477 86.2511 16.1811 86.6325 15.6469L87.911 16.8368C87.2617 17.7408 86.2788 18.1918 84.9624 18.1897Z" fill="#37373A"/>
<path d="M92.5376 18.0165L90.5629 18.0134L90.572 12.2746L88.4893 12.2713L88.492 10.559L94.6319 10.5686L94.6292 12.281L92.5466 12.2777L92.5376 18.0165Z" fill="#37373A"/>
<path d="M95.582 20.9369L95.8778 19.1787C96.0628 19.2613 96.2685 19.3028 96.4947 19.3031C97.0192 19.304 97.364 19.1245 97.5292 18.7648L97.8078 18.1328L94.7961 10.5689L96.8941 10.5722L98.8297 15.7586L100.782 10.5783L102.895 10.5816L99.3796 19.246C99.1215 19.9038 98.7608 20.3609 98.2976 20.6172C97.8344 20.8839 97.2531 21.027 96.5537 21.0465C96.1937 21.0459 95.8698 21.0094 95.582 20.9369Z" fill="#37373A"/>
<path d="M110.762 18.0451L108.803 18.042L108.812 12.3033L105.726 12.2984L105.717 18.0372L103.758 18.0341L103.77 10.583L110.774 10.594L110.762 18.0451Z" fill="#37373A"/>
<path d="M114.666 18.0512L112.707 18.0482L112.718 10.597L114.678 10.6001L114.673 13.3615L117.759 13.3663L117.763 10.6049L119.722 10.608L119.711 18.0592L117.751 18.0561L117.756 15.0787L114.671 15.0739L114.666 18.0512Z" fill="#37373A"/>
<path d="M128.089 18.0723L126.129 18.0693L126.131 17.2979C125.595 17.9347 124.807 18.2523 123.769 18.2507C123.1 18.2496 122.499 18.0327 121.965 17.5999C121.441 17.1568 121.18 16.5496 121.181 15.7783C121.182 14.9761 121.44 14.3749 121.955 13.9746C122.48 13.5743 123.087 13.3747 123.776 13.3758C124.836 13.3775 125.622 13.6821 126.135 14.2897L126.137 13.2869C126.137 12.9064 125.989 12.6028 125.691 12.3761C125.393 12.1493 124.997 12.0356 124.504 12.0348C123.691 12.0335 122.966 12.3255 122.327 12.9107L121.589 11.5983C122.474 10.818 123.56 10.4289 124.845 10.431C125.802 10.4325 126.583 10.6548 127.189 11.098C127.795 11.5412 128.098 12.2616 128.096 13.2592L128.089 18.0723ZM124.558 16.9252C125.288 16.9263 125.813 16.7112 126.132 16.2797L126.134 15.3541C125.815 14.9217 125.291 14.7049 124.561 14.7037C124.16 14.7031 123.826 14.8054 123.558 15.0107C123.29 15.2057 123.156 15.478 123.155 15.8277C123.155 16.1671 123.288 16.4347 123.555 16.6305C123.822 16.8263 124.156 16.9246 124.558 16.9252Z" fill="#37373A"/>
<path d="M132.006 18.0785L129.785 18.075L131.517 15.378C131.054 15.2642 130.664 15.0064 130.346 14.6048C130.028 14.2032 129.869 13.6888 129.87 13.0614C129.871 12.3723 130.103 11.7968 130.567 11.3347C131.03 10.8623 131.658 10.6268 132.45 10.628L136.97 10.6351L136.958 18.0863L134.999 18.0832L135.003 15.5223L133.476 15.5199L132.006 18.0785ZM132.754 13.8836L135.006 13.8871L135.008 12.2827L132.756 12.2792C132.489 12.2788 132.273 12.3504 132.108 12.4941C131.943 12.6379 131.86 12.828 131.86 13.0645C131.86 13.3114 131.936 13.512 132.09 13.6665C132.255 13.8108 132.476 13.8831 132.754 13.8836Z" fill="#37373A"/>
<path d="M64.538 33.8427C63.3861 33.8409 62.4405 33.4743 61.7011 32.743C60.9618 32.0116 60.593 31.07 60.5949 29.9181C60.5966 28.7766 60.9684 27.8412 61.71 27.1122C62.4516 26.3832 63.3984 26.0196 64.5502 26.0214C65.8667 26.0234 66.8481 26.4724 67.4947 27.3681L66.2123 28.5694C65.8532 28.034 65.3291 27.7658 64.6401 27.7647C64.0436 27.7638 63.5547 27.9636 63.1736 28.3641C62.8027 28.7543 62.6168 29.2734 62.6158 29.9213C62.6147 30.5692 62.799 31.094 63.1687 31.4957C63.5486 31.8974 64.0368 32.0987 64.6333 32.0997C65.3017 32.1007 65.8267 31.8341 66.2081 31.2999L67.4866 32.4898C66.8373 33.3938 65.8544 33.8448 64.538 33.8427Z" fill="#37373A"/>
<path d="M73.0231 33.8561C72.0872 33.8546 71.3216 33.4729 70.7263 32.7109L70.7203 36.5059L68.7611 36.5028L68.7773 26.2131L70.7365 26.2162L70.735 27.1572C71.3224 26.4074 72.0892 26.0332 73.0353 26.0347C74.0124 26.0362 74.8037 26.3871 75.4094 27.0874C76.0254 27.7775 76.3325 28.7293 76.3306 29.9429C76.3286 31.1564 76.0186 32.1124 75.4004 32.8108C74.7925 33.5092 74.0001 33.8576 73.0231 33.8561ZM72.4087 32.1119C72.9744 32.1128 73.4272 31.9129 73.7672 31.5124C74.1175 31.1118 74.2932 30.5876 74.2942 29.9397C74.2952 29.302 74.1212 28.7824 73.7721 28.3807C73.4334 27.9791 72.9812 27.7778 72.4155 27.7769C72.0967 27.7764 71.7778 27.8582 71.4587 28.0223C71.1396 28.1863 70.8976 28.3865 70.7327 28.6228L70.7285 31.2608C70.8927 31.4976 71.1341 31.6985 71.4527 31.8635C71.7815 32.0286 72.1002 32.1114 72.4087 32.1119Z" fill="#37373A"/>
<path d="M81.2611 33.869C80.1092 33.8672 79.1585 33.5058 78.4088 32.7847C77.6592 32.0636 77.2853 31.1168 77.2871 29.9444C77.2889 28.8439 77.6503 27.9189 78.3714 27.1692C79.1027 26.4196 80.0289 26.0457 81.15 26.0474C82.2607 26.0492 83.16 26.4311 83.8479 27.1933C84.5357 27.9451 84.8787 28.933 84.8768 30.1568L84.8761 30.5888L79.3379 30.5801C79.3988 31.0738 79.6193 31.4856 79.9993 31.8153C80.3793 32.145 80.8727 32.3103 81.4795 32.3112C81.8086 32.3118 82.1635 32.2455 82.5443 32.1124C82.9353 31.9793 83.2441 31.7998 83.4707 31.5739L84.3326 32.8402C83.5808 33.5281 82.5569 33.871 81.2611 33.869ZM82.9807 29.2591C82.9505 28.8374 82.7814 28.4566 82.4734 28.1167C82.1757 27.7769 81.7337 27.6065 81.1475 27.6055C80.5921 27.6047 80.1599 27.7737 79.8509 28.1126C79.5418 28.4412 79.3612 28.8215 79.3091 29.2533L82.9807 29.2591Z" fill="#37373A"/>
<path d="M85.5892 35.5882L85.5948 32.0555C85.8211 32.0147 85.9961 31.943 86.1196 31.8403C86.2535 31.7274 86.3773 31.5167 86.4909 31.2084C86.6148 30.8898 86.7132 30.4374 86.7861 29.8513L87.27 26.2422L93.3019 26.2516L93.2929 31.9904L94.1105 31.9917L94.1048 35.6016L92.1456 35.5985L92.1486 33.701L87.5668 33.6938L87.5639 35.5913L85.5892 35.5882ZM88.9797 27.9572L88.7451 29.9778C88.6409 30.8724 88.3518 31.5404 87.8781 31.9819L91.3337 31.9873L91.34 27.9609L88.9797 27.9572Z" fill="#37373A"/>
<path d="M101.774 33.7161L99.8144 33.713L99.8156 32.9417C99.2798 33.5785 98.4925 33.8961 97.4538 33.8945C96.7853 33.8934 96.184 33.6765 95.6499 33.2437C95.1261 32.8006 94.8647 32.1934 94.866 31.4221C94.8672 30.6199 95.1253 30.0187 95.6401 29.6184C96.1653 29.2181 96.7724 29.0185 97.4614 29.0196C98.5207 29.0212 99.307 29.3259 99.8203 29.9335L99.8219 28.9307C99.8225 28.5502 99.6738 28.2466 99.3759 28.0198C99.078 27.7931 98.6823 27.6794 98.1886 27.6786C97.3761 27.6773 96.6506 27.9693 96.0121 28.5545L95.2736 27.2421C96.1593 26.4618 97.245 26.0727 98.5305 26.0747C99.487 26.0762 100.268 26.2986 100.874 26.7418C101.48 27.185 101.783 27.9054 101.781 28.903L101.774 33.7161ZM98.2426 32.569C98.9728 32.5701 99.4977 32.355 99.8172 31.9235L99.8186 30.9979C99.5005 30.5655 98.9763 30.3487 98.2461 30.3475C97.845 30.3469 97.5106 30.4492 97.2429 30.6545C96.9752 30.8495 96.8411 31.1218 96.8405 31.4715C96.84 31.8109 96.9733 32.0785 97.2404 32.2743C97.5075 32.4701 97.8415 32.5684 98.2426 32.569Z" fill="#37373A"/>
<defs>
<linearGradient id="paint0_linear" x1="25.5926" y1="0.905724" x2="22.5461" y2="19.7167" gradientUnits="userSpaceOnUse">
<stop stop-color="#15FF24"/>
<stop offset="0.99" stop-color="#005EFF"/>
</linearGradient>
<linearGradient id="paint1_linear" x1="8.28442" y1="1.68992" x2="28.308" y2="28.458" gradientUnits="userSpaceOnUse">
<stop stop-color="#55A3FF"/>
<stop offset="1" stop-color="#13BF00"/>
</linearGradient>
</defs>
</svg>
