<svg width="20" height="17" viewBox="0 0 20 17" fill="none" xmlns="http://www.w3.org/2000/svg">
<path fill-rule="evenodd" clip-rule="evenodd" d="M12.1581 5.5C12.1581 6.90071 11.0401 8 9.70545 8C8.37077 8 7.25279 6.90071 7.25279 5.5C7.25279 4.09929 8.37077 3 9.70545 3C11.0401 3 12.1581 4.09929 12.1581 5.5ZM11.9914 9.3625C13.2894 8.57621 14.1581 7.14064 14.1581 5.5C14.1581 3.01472 12.1646 1 9.70545 1C7.24631 1 5.25279 3.01472 5.25279 5.5C5.25279 7.1407 6.12161 8.57632 7.41964 9.36258C4.58977 10.2876 2.50373 12.8839 2.30078 16H4.30656C4.55608 13.1804 6.89559 11 9.70565 11C12.5157 11 14.8552 13.1804 15.1047 16H17.1105C16.9076 12.8838 14.8214 10.2875 11.9914 9.3625Z" fill="#2DD05D"/>
</svg>
