<svg width="22" height="12" viewBox="0 0 22 12" xmlns="http://www.w3.org/2000/svg">
<path d="M10.764 11.9495H12.0791C12.0791 11.9495 12.4761 11.9079 12.6788 11.6992C12.866 11.5069 12.8598 11.1467 12.8598 11.1467C12.8598 11.1467 12.8342 9.45992 13.6529 9.21111C14.46 8.96601 15.497 10.8414 16.5954 11.5626C17.4266 12.1085 18.0582 11.9889 18.0582 11.9889L20.996 11.9495C20.996 11.9495 22.5325 11.8589 21.8039 10.704C21.7441 10.6097 21.379 9.84911 19.6195 8.28716C17.777 6.65242 18.024 6.91683 20.2433 4.08854C21.5942 2.3669 22.1348 1.3152 21.9655 0.865109C21.8047 0.435814 20.8111 0.549451 20.8111 0.549451L17.5027 0.568762C17.5027 0.568762 17.2573 0.536825 17.0755 0.640806C16.8984 0.74256 16.7842 0.980232 16.7842 0.980232C16.7842 0.980232 16.2599 2.31268 15.5623 3.44608C14.0895 5.83765 13.4999 5.96392 13.2591 5.81537C12.699 5.46926 12.8388 4.42573 12.8388 3.68375C12.8388 1.36571 13.207 0.399421 12.1234 0.149122C11.7637 0.0666798 11.4988 0.0117182 10.5791 0.00280547C9.39915 -0.00907814 8.40018 0.00577638 7.83467 0.270929C7.45792 0.446955 7.16739 0.839857 7.3445 0.862138C7.56279 0.890362 8.05839 0.989887 8.32094 1.33154C8.65963 1.77272 8.64798 2.76277 8.64798 2.76277C8.64798 2.76277 8.84296 5.4908 8.19277 5.83023C7.74689 6.06196 7.13554 5.5881 5.82197 3.41786C5.14926 2.30674 4.64123 1.07827 4.64123 1.07827C4.64123 1.07827 4.54336 0.848769 4.36858 0.725477C4.15651 0.576932 3.86055 0.529398 3.86055 0.529398L0.716827 0.549451C0.716827 0.549451 0.245308 0.562077 0.0720811 0.758157C-0.0825026 0.932697 0.0596523 1.29366 0.0596523 1.29366C0.0596523 1.29366 2.52056 6.79874 5.30695 9.57282C7.86263 12.1167 10.764 11.9495 10.764 11.9495Z" />
</svg>
